#!OML:ASF H:\Pregnant\Project 1\Capture day 1\Session 1\femalepreg.ASF
:FULLY-SPECIFIED
:DEGREES
194
root 9.11962 14.4359 28.0132 179.817 -82.0772 -165.597
lowerback -16.022 -0.421574 -3.06266
upperback -3.94657 -0.273128 -0.082391
thorax 4.7825 -0.255532 1.5861
lowerneck -20.7542 6.01357 7.43356
upperneck 25.6512 4.52322 3.73239
head 12.0338 3.14202 0.886737
rclavicle -1.47225e-014 -2.78299e-015
rhumerus -38.8262 4.35898 -80.2154
rradius 21.3672
rwrist 13.7685
rhand -15.4591 -16.5742
rfingers 7.12502
rthumb 10.7219 -46.2806
lclavicle -1.47225e-014 -2.78299e-015
lhumerus -40.2961 -25.3358 85.9207
lradius 25.1881
lwrist 27.3645
lhand -29.8844 0.529178
lfingers 7.12502
lthumb -3.20578 30.4848
rfemur -22.5439 19.6862 -6.52194
rtibia 24.7277
rfoot -14.1471 -19.4695
rtoes -31.7931
lfemur -2.02332 -1.91202 3.47085
ltibia 4.77083e-015
lfoot -7.58667 15.0103
ltoes -20.975
195
root 9.11767 14.4362 28.0067 178.735 -82.1265 -164.558
lowerback -16.0173 -0.398799 -2.9629
upperback -3.97014 -0.260821 -0.0833935
thorax 4.75428 -0.248355 1.53102
lowerneck -20.8069 6.00864 7.33434
upperneck 25.7335 4.49103 3.89221
head 12.0691 3.14006 0.960802
rclavicle -8.59744e-015 -1.90833e-014
rhumerus -38.5074 4.19064 -80.1673
rradius 21.4698
rwrist 13.6248
rhand -15.5631 -16.2971
rfingers 7.12502
rthumb 10.6216 -46.0086
lclavicle -8.59744e-015 -1.90833e-014
lhumerus -39.6052 -24.6027 85.4824
lradius 24.944
lwrist 27.0399
lhand -30.2475 0.703583
lfingers 7.12502
lthumb -3.55645 30.6537
rfemur -22.327 19.8276 -6.33106
rtibia 24.5318
rfoot -14.1745 -19.5929
rtoes -31.6581
lfemur -1.99654 -1.97645 3.64368
ltibia -9.54166e-015
lfoot -7.53683 15.0431
ltoes -21.2562
196
root 9.11589 14.4371 28.0001 177.545 -82.1991 -163.399
lowerback -16.0077 -0.378724 -2.85667
upperback -4.00151 -0.25367 -0.0852968
thorax 4.71548 -0.243629 1.47034
lowerneck -20.8645 6.00034 7.23131
upperneck 25.8023 4.45698 4.04905
head 12.1 3.13652 1.03401
rclavicle -1.25483e-014 7.95139e-016
rhumerus -38.2041 3.95789 -80.1137
rradius 21.6145
rwrist 13.3316
rhand -15.6206 -16.0933
rfingers 7.12502
rthumb 10.5661 -45.8077
lclavicle -1.25483e-014 7.95139e-016
lhumerus -38.9325 -23.8049 85.0483
lradius 24.7809
lwrist 26.8193
lhand -30.5661 0.905265
lfingers 7.12502
lthumb -3.86413 30.85
rfemur -22.0945 19.9823 -6.12855
rtibia 24.3167
rfoot -14.2026 -19.7558
rtoes -31.4903
lfemur -2.00103 -2.0605 3.83079
ltibia 2.38542e-014
lfoot -7.46214 15.0854
ltoes -21.6369
197
root 9.11461 14.4387 27.9929 176.247 -82.2963 -162.112
lowerback -15.9957 -0.365545 -2.75244
upperback -4.04234 -0.255961 -0.0869555
thorax 4.66575 -0.243605 1.4092
lowerneck -20.928 5.99295 7.13786
upperneck 25.8612 4.42593 4.19068
head 12.129 3.13334 1.10057
rclavicle 2.19409e-014 7.95139e-015
rhumerus -37.9204 3.71446 -80.0927
rradius 21.8157
rwrist 12.8681
rhand -15.627 -16.058
rfingers 7.12502
rthumb 10.56 -45.7727
lclavicle 2.19409e-014 7.95139e-015
lhumerus -38.2907 -22.9601 84.6309
lradius 24.7071
lwrist 26.7314
lhand -30.8677 1.14108
lfingers 7.12502
lthumb -4.15538 31.0803
rfemur -21.8561 20.1467 -5.91568
rtibia 24.0895
rfoot -14.2265 -19.9617
rtoes -31.3081
lfemur -2.04483 -2.16371 4.03318
ltibia -7.95139e-015
lfoot -7.36119 15.1368
ltoes -22.1254
198
root 9.11392 14.4408 27.9851 174.822 -82.4185 -160.681
lowerback -15.9806 -0.359445 -2.65422
upperback -4.09157 -0.267231 -0.0876122
thorax 4.60587 -0.248102 1.3508
lowerneck -20.9953 5.98642 7.05907
upperneck 25.9058 4.40031 4.30558
head 12.1544 3.13056 1.15553
rclavicle 9.97651e-015 2.38542e-015
rhumerus -37.6621 3.48848 -80.1246
rradius 22.0829
rwrist 12.2188
rhand -15.613 -16.2546
rfingers 7.12502
rthumb 10.5734 -45.9686
lclavicle 9.97651e-015 2.38542e-015
lhumerus -37.6855 -22.0903 84.2451
lradius 24.7231
lwrist 26.796
lhand -31.1392 1.36953
lfingers 7.12502
lthumb -4.41758 31.3035
rfemur -21.6135 20.3205 -5.69242
rtibia 23.8551
rfoot -14.2452 -20.2115
rtoes -31.1125
lfemur -2.12854 -2.2874 4.25155
ltibia -7.95139e-015
lfoot -7.23012 15.1993
ltoes -22.7427
